# xmcd CD database file
#
# Track frame offsets:
#	150
#	13274
#	29432
#	44174
#	47841
#	51461
#	66391
#	79979
#	98514
#	102792
#	119185
#	134396
#	153001
#	163662
#	187095
#	201697
#	206464
#	221584
#	237826
#	254309
#	276256
#	280334
#	294851
#	309184
#
# Disc length: 4198 seconds
#
# Revision: 0
# Processed by: cddbd v1.5.2PL0 Copyright (c) Steve Scherf et al.
# Submitted via: CDex 1.79
#
DISCID=75106418
DTITLE=Duke Ellington - Treasury Shows 13
DYEAR=2008
DGENRE=Jazz
TTITLE0=I Ain't Got Nothin But The Blues (Vocal Al Hibbler and Kay Davis)
TTITLE1=Blue Skies
TTITLE2=Suddenly It Jumped
TTITLE3=Take The A Train "Into Broadcast Closing"
TTITLE4=(Theme) Take The A Train (Billy Strayhorn)
TTITLE5=Main Stem
TTITLE6=Carnegie Blues
TTITLE7=I Can't Believe That You're In Love With Me
TTITLE8=Bond Promo
TTITLE9=What Am I Here For
TTITLE10=Lilly Belle
TTITLE11=Homesick That's All
TTITLE12=Go Away Blues (Vocal Joya Sherrill)
TTITLE13=Frantic Fantasy "Into Station Break"
TTITLE14=If You Are But A Dream (Vocal Kay Davis)
TTITLE15=Bond Promo
TTITLE16=Jack The Bear
TTITLE17=Every Hour On The Hour (Vocal Al Hibbler)
TTITLE18=Cotton Tail
TTITLE19=Lament In A Minor Mood (Way Low)
TTITLE20=Bond Promo
TTITLE21=Teardrops In The Rain
TTITLE22=I Ain't Got Nothin' But The Blues (Vocal Al Hibbert and Kay Davis)
TTITLE23=Things Ain't What They Used To Be
EXTD=YEAR: 2008
EXTT0=
EXTT1=
EXTT2=
EXTT3=
EXTT4=
EXTT5=
EXTT6=
EXTT7=
EXTT8=
EXTT9=
EXTT10=
EXTT11=
EXTT12=
EXTT13=
EXTT14=
EXTT15=
EXTT16=
EXTT17=
EXTT18=
EXTT19=
EXTT20=
EXTT21=
EXTT22=
EXTT23=
PLAYORDER=
